<?xml version="1.0" encoding="UTF-8" standalone="no"?>
<svg width="170px" height="39px" viewBox="0 0 170 39" version="1.1" xmlns="http://www.w3.org/2000/svg" xmlns:xlink="http://www.w3.org/1999/xlink" xmlns:sketch="http://www.bohemiancoding.com/sketch/ns">
    <!-- Generator: sketchtool 3.4 (381) - http://www.bohemiancoding.com/sketch -->
    <title>Logo</title>
    <desc>Created with sketchtool.</desc>
    <defs></defs>
    <g id="Page-1" stroke="none" stroke-width="1" fill="none" fill-rule="evenodd" sketch:type="MSPage">
        <g id="Desktop---Home" sketch:type="MSArtboardGroup" transform="translate(-375.000000, -33.000000)">
            <g id="Logo" sketch:type="MSLayerGroup" transform="translate(375.000000, 33.000000)">
                <g id="Imported-Layers-Copy" sketch:type="MSShapeGroup">
                    <path d="M49.7113504,0.403209677 C53.5661314,0.513290323 56.6602555,3.66977419 56.6602555,7.55782258 C56.6602555,7.57229032 56.6639781,7.58801613 56.6639781,7.6031129 L56.6639781,38.4955161 L7.37948905,38.4955161 C3.42729927,38.4955161 0.22459854,35.2880806 0.22459854,31.3308387 L0.22459854,0.403209677 L49.7113504,0.403209677" id="Fill-1" fill="#215E9C"></path>
                    <path d="M81.4864599,13.0316613 L81.4864599,15.9403065 L77.1682117,15.9403065 L77.1682117,28.8417581 L73.61,28.8417581 L73.61,15.9403065 L69.2911314,15.9403065 L69.2911314,13.0316613 L81.4864599,13.0316613" id="Fill-2" fill="#FFFFFF"></path>
                    <path d="M93.1637226,13.0316613 L93.1637226,15.8535 L86.8662774,15.8535 L86.8662774,19.5427742 L91.6889416,19.5427742 L91.6889416,22.2545323 L86.8662774,22.2545323 L86.8662774,26.0224355 L93.1637226,26.0224355 L93.1637226,28.8417581 L83.2875912,28.8417581 L83.2875912,13.0316613 L93.1637226,13.0316613" id="Fill-3" fill="#FFFFFF"></path>
                    <path d="M98.9127007,25.9136129 L104.599015,25.9136129 L104.599015,28.8417581 L95.3538686,28.8417581 L95.3538686,13.0316613 L98.9127007,13.0316613 L98.9127007,25.9136129" id="Fill-4" fill="#FFFFFF"></path>
                    <path d="M112.056058,13.0316613 C112.734818,13.0316613 113.334781,13.1329355 113.855328,13.3354839 C114.374635,13.5380323 114.813285,13.805371 115.171898,14.1356129 C115.52927,14.4671129 115.810328,14.8495645 116.014453,15.2835968 C116.217336,15.7188871 116.343285,16.1629839 116.39292,16.6190323 L114.287774,17.0461452 C113.915511,17.1304355 113.642518,16.9819839 113.465073,16.5976452 C113.303139,16.2265161 113.115766,15.9465968 112.902336,15.7528548 C112.688285,15.561629 112.404745,15.4666452 112.056058,15.4666452 C111.808504,15.4666452 111.595073,15.5131935 111.410803,15.6050323 C111.228394,15.696871 111.076387,15.8182742 110.954781,15.9673548 C110.831934,16.1164355 110.738248,16.2919355 110.675584,16.4900806 C110.611058,16.6894839 110.578796,16.8964355 110.578796,17.1103065 C110.578796,17.2939839 110.595547,17.4707419 110.62719,17.6380645 C110.658832,17.8053871 110.71281,17.9771129 110.789124,18.1507258 C110.86792,18.3249677 110.971533,18.5042419 111.101825,18.6891774 C111.231496,18.8747419 111.394672,19.0772903 111.592591,19.2993387 L115.381606,23.3553387 C115.572701,22.9275968 115.725949,22.482871 115.846314,22.0205323 C115.964197,21.5581935 116.040511,21.0769839 116.077737,20.5794194 C116.098212,20.3787581 116.165219,20.2227581 116.277518,20.1101613 C116.387956,19.9956774 116.540584,19.9396935 116.731679,19.9396935 L118.794015,19.9396935 C118.794015,20.9782258 118.656898,21.9488226 118.383285,22.8483387 C118.109672,23.7478548 117.719416,24.5712581 117.21438,25.3204355 L120.436314,28.7568387 L117.21438,28.7568387 C117.053066,28.7568387 116.909124,28.7480323 116.783175,28.7297903 C116.655985,28.7140645 116.536861,28.6819839 116.428285,28.6398387 C116.321569,28.5970645 116.217336,28.5354194 116.119927,28.4580484 C116.020657,28.3806774 115.915803,28.2800323 115.803504,28.1598871 L115.140255,27.4547419 C114.474526,27.924 113.744891,28.2863226 112.954453,28.5429677 C112.165876,28.800871 111.324562,28.9273065 110.432993,28.9273065 C109.821861,28.9273065 109.223139,28.821629 108.638066,28.607129 C108.051131,28.3945161 107.529964,28.0894355 107.073321,27.6937742 C106.61792,27.299371 106.248139,26.8219355 105.969562,26.2595806 C105.687263,25.6972258 105.546423,25.0681935 105.546423,24.3687097 C105.546423,23.8994516 105.617774,23.4540968 105.761715,23.0351613 C105.906898,22.6155968 106.10854,22.2237097 106.367883,21.8664194 C106.627847,21.5066129 106.938066,21.1795161 107.299161,20.883871 C107.661496,20.5894839 108.055474,20.3296935 108.485438,20.1101613 C108.154745,19.5899516 107.916496,19.0816935 107.768212,18.5822419 C107.619927,18.0846774 107.547956,17.6003226 107.547956,17.1304355 C107.547956,16.5768871 107.647226,16.0522742 107.847007,15.5559677 C108.04865,15.0609194 108.339015,14.6275161 108.721825,14.2545 C109.103394,13.8802258 109.576168,13.5839516 110.132701,13.3619032 C110.691095,13.1417419 111.331387,13.0316613 112.056058,13.0316613 L112.056058,13.0316613 Z M111.021788,26.3759516 C111.493321,26.3759516 111.930109,26.3136774 112.332774,26.1903871 C112.737299,26.0658387 113.115146,25.8903387 113.465073,25.662629 L109.937263,21.8727097 C109.551971,22.191 109.278358,22.5407419 109.118285,22.9187903 C108.955109,23.2949516 108.874453,23.6906129 108.874453,24.1032581 C108.874453,24.4441935 108.924708,24.7543065 109.02646,25.0317097 C109.127591,25.3084839 109.274635,25.5475161 109.463248,25.7469194 C109.654343,25.9463226 109.882044,26.1004355 110.143869,26.2105161 C110.406934,26.3224839 110.701022,26.3759516 111.021788,26.3759516 L111.021788,26.3759516 Z" id="Fill-5" fill="#FFFFFF"></path>
                    <path d="M132.197956,24.7329194 C132.283577,24.7329194 132.367336,24.7492742 132.451715,24.7819839 C132.536095,24.8121774 132.616752,24.8687903 132.693066,24.9467903 L134.103321,26.4508065 C133.486606,27.2704355 132.71292,27.8868871 131.784124,28.3033065 C130.852847,28.7197258 129.751569,28.9273065 128.480912,28.9273065 C127.315109,28.9273065 126.272153,28.7272742 125.348942,28.3240645 C124.42573,27.9214839 123.644599,27.3673065 122.999964,26.6596452 C122.35781,25.9526129 121.865182,25.1109677 121.520839,24.141629 C121.177737,23.1685161 121.005255,22.113 121.005255,20.9744516 C121.005255,19.8138871 121.190766,18.7483065 121.56365,17.7777097 C121.934672,16.8064839 122.457701,15.9673548 123.132117,15.2628387 C123.805912,14.5589516 124.613102,14.0110645 125.553686,13.6179194 C126.49427,13.2272903 127.531022,13.0316613 128.66146,13.0316613 C129.235365,13.0316613 129.778248,13.083871 130.288248,13.1870323 C130.796387,13.2908226 131.272883,13.4310968 131.715255,13.6141452 C132.157007,13.7946774 132.563394,14.0142097 132.936277,14.2689677 C133.307299,14.5256129 133.638613,14.8036452 133.927117,15.1030645 L132.725949,16.7366613 C132.646533,16.8366774 132.55719,16.926629 132.451715,17.0077742 C132.346861,17.0901774 132.197956,17.1304355 132.008723,17.1304355 C131.883394,17.1304355 131.763029,17.1033871 131.651971,17.0461452 C131.538431,16.9889032 131.419307,16.9203387 131.292737,16.8379355 C131.166168,16.7567903 131.028431,16.6668387 130.877044,16.5705968 C130.725657,16.4743548 130.54573,16.3862903 130.339745,16.3038871 C130.132518,16.2227419 129.889927,16.1529194 129.613832,16.0956774 C129.335876,16.0384355 129.012007,16.0107581 128.639124,16.0107581 C128.050328,16.0107581 127.510547,16.1195806 127.023504,16.341 C126.535839,16.5624194 126.114562,16.8844839 125.759672,17.3078226 C125.404161,17.7311613 125.131788,18.251371 124.938212,18.8659355 C124.744635,19.4823871 124.647847,20.1856452 124.647847,20.9744516 C124.647847,21.7708065 124.756423,22.4809839 124.969854,23.0993226 C125.185146,23.7182903 125.475511,24.2385 125.844051,24.6630968 C126.21135,25.0858065 126.642555,25.409129 127.135182,25.6292903 C127.625328,25.8500806 128.15146,25.9607903 128.713577,25.9607903 C129.036825,25.9607903 129.330912,25.9431774 129.597701,25.9117258 C129.864489,25.8802742 130.113905,25.8268065 130.345949,25.7525806 C130.577372,25.6777258 130.793905,25.5777097 130.998029,25.4525323 C131.201533,25.3292419 131.40938,25.1719839 131.619708,24.9782419 C131.705328,24.9084194 131.794672,24.8492903 131.894562,24.8014839 C131.99135,24.7555645 132.093723,24.7329194 132.197956,24.7329194" id="Fill-6" fill="#FFFFFF"></path>
                    <path d="M150.363759,20.9744516 C150.363759,22.0997903 150.173285,23.1452419 149.787993,24.1139516 C149.407664,25.0814032 148.867883,25.9243065 148.172993,26.6388871 C147.478102,27.3522097 146.641131,27.9151935 145.66208,28.3196613 C144.681788,28.7247581 143.596022,28.9273065 142.401679,28.9273065 C141.208577,28.9273065 140.12219,28.7247581 139.138175,28.3196613 C138.155401,27.9151935 137.313467,27.3522097 136.617336,26.6388871 C135.916861,25.9243065 135.377701,25.0814032 134.995511,24.1139516 C134.61208,23.1452419 134.420365,22.0997903 134.420365,20.9744516 C134.420365,19.8497419 134.61208,18.8049194 134.995511,17.8355806 C135.377701,16.8675 135.916861,16.028371 136.617336,15.3163065 C137.313467,14.604871 138.155401,14.0450323 139.138175,13.6411935 C140.12219,13.2342097 141.208577,13.0316613 142.401679,13.0316613 C143.596022,13.0316613 144.681788,13.2367258 145.66208,13.6443387 C146.641131,14.0550968 147.478102,14.6143065 148.172993,15.326371 C148.867883,16.0384355 149.407664,16.8788226 149.787993,17.8469032 C150.173285,18.8149839 150.363759,19.8572903 150.363759,20.9744516 L150.363759,20.9744516 Z M146.719307,20.9744516 C146.719307,20.2064032 146.622518,19.5138387 146.425839,18.8986452 C146.229161,18.2821935 145.946241,17.7607258 145.578321,17.3342419 C145.209781,16.907129 144.758102,16.5794032 144.224526,16.3523226 C143.691569,16.1239839 143.08354,16.0107581 142.401679,16.0107581 C141.714854,16.0107581 141.101861,16.1239839 140.564562,16.3523226 C140.027263,16.5794032 139.575584,16.907129 139.207664,17.3342419 C138.837263,17.7607258 138.555584,18.2821935 138.358285,18.8986452 C138.161606,19.5138387 138.064818,20.2064032 138.064818,20.9744516 C138.064818,21.7500484 138.161606,22.4470161 138.358285,23.0622097 C138.555584,23.6780323 138.837263,24.1995 139.207664,24.6253548 C139.575584,25.0530968 140.027263,25.3795645 140.564562,25.602871 C141.101861,25.8268065 141.714854,25.9381452 142.401679,25.9381452 C143.08354,25.9381452 143.691569,25.8268065 144.224526,25.602871 C144.758102,25.3795645 145.209781,25.0530968 145.578321,24.6253548 C145.946241,24.1995 146.229161,23.6780323 146.425839,23.0622097 C146.622518,22.4470161 146.719307,21.7500484 146.719307,20.9744516 L146.719307,20.9744516 Z" id="Fill-7" fill="#FFFFFF"></path>
                    <path d="M160.708321,22.3186935 C160.840474,22.6105645 160.963942,22.911871 161.083066,23.2182097 C161.203431,22.9049516 161.326898,22.5986129 161.45719,22.2973065 C161.586861,22.0004032 161.725219,21.7160806 161.873504,21.4455968 L165.812044,13.5877258 C165.881533,13.4518548 165.952263,13.3468065 166.026095,13.2719516 C166.101788,13.1977258 166.183686,13.143629 166.274891,13.1071452 C166.366095,13.0712903 166.469088,13.0499032 166.58573,13.0429839 C166.699891,13.0366935 166.835146,13.0316613 166.990255,13.0316613 L169.707774,13.0316613 L169.707774,28.5857419 L166.568978,28.5857419 L166.568978,19.6415323 C166.568978,19.2062419 166.590073,18.7369839 166.632263,18.2306129 L162.568394,26.2287581 C162.441825,26.4778548 162.270584,26.6659355 162.057774,26.793629 C161.844343,26.9213226 161.598029,26.9861129 161.323796,26.9861129 L160.840474,26.9861129 C160.567482,26.9861129 160.32427,26.9213226 160.109599,26.793629 C159.895547,26.6659355 159.725547,26.4778548 159.598978,26.2287581 L155.512774,18.2211774 C155.540693,18.4696452 155.563029,18.7174839 155.576058,18.9628065 C155.589708,19.208129 155.595912,19.4352097 155.595912,19.6415323 L155.595912,28.5857419 L152.458358,28.5857419 L152.458358,13.0316613 L155.175255,13.0316613 C155.330365,13.0316613 155.46562,13.0366935 155.581642,13.0429839 C155.697044,13.0499032 155.800036,13.0712903 155.891861,13.1071452 C155.983066,13.143629 156.065584,13.1977258 156.138796,13.2719516 C156.213869,13.3468065 156.284599,13.4518548 156.353467,13.5877258 L160.303796,21.4770484 C160.444635,21.7469032 160.57927,22.0274516 160.708321,22.3186935" id="Fill-8" fill="#FFFFFF"></path>
                    <path d="M19.0480657,13.0316613 L19.0480657,15.9686129 L14.6156569,15.9686129 L14.6156569,29.0021613 L10.9606569,29.0021613 L10.9606569,15.9686129 L6.52824818,15.9686129 L6.52824818,13.0316613 L19.0480657,13.0316613" id="Fill-9" fill="#FFFFFF"></path>
                    <path d="M31.1143431,24.9348387 C31.2005839,24.9348387 31.2862044,24.9518226 31.3712044,24.9845323 C31.4562044,25.0159839 31.5387226,25.0707097 31.6150365,25.1505968 L33.0420438,26.6703387 C32.4166423,27.4987742 31.6342701,28.1215161 30.6955474,28.5417097 C29.7537226,28.9631613 28.645,29.1732581 27.3606934,29.1732581 C26.1843431,29.1732581 25.1277372,28.9694516 24.1970803,28.5637258 C23.2633212,28.158629 22.4722628,27.5969032 21.8245255,26.8804355 C21.1755474,26.169 20.6767153,25.3179194 20.3280292,24.3385161 C19.9818248,23.3559677 19.8062409,22.289129 19.8062409,21.138 C19.8062409,19.967371 19.9960949,18.8898387 20.3714599,17.9104355 C20.7486861,16.9291452 21.2760584,16.0818387 21.9566788,15.3691452 C22.6372993,14.6583387 23.4544161,14.1047903 24.4043066,13.709129 C25.3535766,13.3134677 26.399635,13.1159516 27.54,13.1159516 C28.1238321,13.1159516 28.670438,13.1687903 29.1854015,13.2732097 C29.6997445,13.377629 30.1793431,13.5210484 30.6260584,13.7028387 C31.0733942,13.8871452 31.4828832,14.1085645 31.8607299,14.3664677 C32.2367153,14.6262581 32.5692701,14.9068065 32.8602555,15.2081129 L31.6472993,16.8593226 C31.5685036,16.9599677 31.4779197,17.0505484 31.3712044,17.1329516 C31.2644891,17.2159839 31.1143431,17.2587581 30.9251095,17.2587581 C30.7966788,17.2587581 30.6756934,17.2291935 30.5627737,17.1713226 C30.4492336,17.1134516 30.3263869,17.043629 30.1998175,16.9612258 C30.0732482,16.8781935 29.9342701,16.788871 29.779781,16.691371 C29.6271533,16.593871 29.445365,16.5039194 29.2375182,16.4208871 C29.0290511,16.3397419 28.7827372,16.2705484 28.5041606,16.2107903 C28.2231022,16.1541774 27.8955109,16.1246129 27.5207664,16.1246129 C26.925146,16.1246129 26.3804015,16.2378387 25.8877737,16.4592581 C25.3945255,16.6819355 24.9682847,17.0071452 24.6115328,17.4348871 C24.2529197,17.8638871 23.9768248,18.3885 23.7820073,19.0093548 C23.5865693,19.6320968 23.4904015,20.3416452 23.4904015,21.138 C23.4904015,21.9444194 23.5958759,22.6602581 23.8136496,23.2874032 C24.0289416,23.9107742 24.3236496,24.4391613 24.6959124,24.8637581 C25.0700365,25.2933871 25.5037226,25.6198548 25.9994526,25.8400161 C26.4951825,26.0645806 27.0281387,26.1759194 27.5945985,26.1759194 C27.919708,26.1759194 28.2181387,26.1595645 28.4886496,26.1274839 C28.7572993,26.0947742 29.0091971,26.0413065 29.2424818,25.9664516 C29.4770073,25.8903387 29.6966423,25.7884355 29.9032482,25.6632581 C30.1092336,25.5380806 30.3183212,25.3795645 30.5317518,25.1839355 C30.6148905,25.1122258 30.7085766,25.0537258 30.8059854,25.0078065 C30.904635,24.960629 31.0088686,24.9348387 31.1143431,24.9348387" id="Fill-10" fill="#FFFFFF"></path>
                </g>
            </g>
        </g>
    </g>
</svg>